<svg id="Слой_2" data-name="Слой 2" xmlns="http://www.w3.org/2000/svg" viewBox="0 0 80.42 104.9"><defs><style>.cls-1{fill:#33a533;stroke:#33a533;}.cls-1,.cls-2{stroke-miterlimit:10;}.cls-2{fill:#fff;stroke:#000;opacity:0.47;}</style></defs><path class="cls-1" d="M65,37c.78,2.13-9,5.33-11.21,6.59a2.63,2.63,0,0,1-.74.31,4.36,4.36,0,0,1-2.54-.34s-.27-.09-.48-.18c-2.1-.91-6.52-7-6.52-7-4.1-4.9-4.69-5.14-8-10a25.18,25.18,0,0,1-4-9c-1.12-5.21,0-10.87-1-9-.56,1-3.78,3.14-5,7-1.89,6,.07,11.5,1,14,1.43,3.86,3.31,6.3,7,11a101.91,101.91,0,0,0,8.36,9.38.36.36,0,0,1,0,.46c-.51.88.11,2.38-1.41,4.29L30.68,65.61l-.4-.11C28.5,66.5,17.89,55.76,14,43.85,9.1,28.56,12.67,7.69,23.53,3.1,40.71-4.16,57.5,16.5,65,37Z" transform="translate(-11.36 -1.12)"/><path class="cls-2" d="M32.79,2.08" transform="translate(-11.36 -1.12)"/><path class="cls-1" d="M84,46.87c-10.63-8.45-29-3.08-41,12s-13.11,34.18-2.47,42.63,29,3.08,41-12S94.6,55.33,84,46.87ZM53.5,95.5a24.78,24.78,0,0,1-6,1c-1.76.09-5.56.29-6-1-.22-.65.48-1.48,1-2a32,32,0,0,0,5-4,35.73,35.73,0,0,0,7-10c2.37-4.93,1.29-5.27,4-11a32.58,32.58,0,0,1,5-8,26.1,26.1,0,0,1,6-5,24.4,24.4,0,0,1,8-3,11.54,11.54,0,0,1,5,0c.87.2,1.89.44,2,1,.18,1-2.4,2.22-4,3-3,1.47-3.35,1-5,2a12.65,12.65,0,0,0-5,6,10.69,10.69,0,0,0-.67,1.85,9.49,9.49,0,0,0-.31,2.7C69.55,71.71,64.53,91.76,53.5,95.5Z" transform="translate(-11.36 -1.12)"/><path class="cls-1" d="M49.5,92.5" transform="translate(-11.36 -1.12)"/><path class="cls-1" d="M66.8,64.16" transform="translate(-11.36 -1.12)"/></svg>